<svg width="1980" height="390" viewBox="0 0 1980 390" fill="none" xmlns="http://www.w3.org/2000/svg">
<path fill-rule="evenodd" clip-rule="evenodd" d="M0 390L54.45 357.5C110.55 325 219.45 260 330 238.333C440.55 216.667 549.45 238.333 660 260C770.55 281.667 879.45 303.333 990 303.333C1100.55 303.333 1209.45 281.667 1320 227.5C1430.55 173.333 1539.45 86.6667 1650 43.3333C1760.55 0 1869.45 0 1925.55 0H1980V390H1925.55C1869.45 390 1760.55 390 1650 390C1539.45 390 1430.55 390 1320 390C1209.45 390 1100.55 390 990 390C879.45 390 770.55 390 660 390C549.45 390 440.55 390 330 390C219.45 390 110.55 390 54.45 390H0Z" fill="#444444"/>
</svg>
